# xmcd
#
# Track frame offsets:
#	150
#	10519
#	21767
#	33077
#	44634
#	55324
#	66634
#	76818
#	88773
#	97794
#	111054
#	122171
#
# Disc length: 1786 seconds
#
# Revision: 0
# Processed by: cddbd v1.5.1PL2 Copyright (c) Steve Scherf et al.
# Submitted via: dBpowerAMP V4.0
#
DISCID=9006f80c
DTITLE=Patsy Cline - Vintage Vaults
DYEAR=2005
DGENRE=Country
TTITLE0=Three Cigarettes In An Ashtray
TTITLE1=I Cried All The Way To The Altar
TTITLE2=A Stranger In My Arms
TTITLE3=That Wonderful Someone
TTITLE4=He Will Do For You What He Has Done
TTITLE5=Don't Ever Leave Me Again
TTITLE6=Turn The Cards Slowly
TTITLE7=If I Could Only Stay Asleep
TTITLE8=Try Again
TTITLE9=Just A Closer Walk With Thee (With Willie Nelson)
TTITLE10=Stop The World (And Let Me Off
TTITLE11=Today, Tomorrow And Forever
EXTD=
EXTT0=
EXTT1=
EXTT2=
EXTT3=
EXTT4=
EXTT5=
EXTT6=
EXTT7=
EXTT8=
EXTT9=
EXTT10=
EXTT11=
PLAYORDER=
